<?xml version="1.0" standalone="no"?>
<!DOCTYPE svg PUBLIC "-//W3C//DTD SVG 20010904//EN"
 "http://www.w3.org/TR/2001/REC-SVG-20010904/DTD/svg10.dtd">
<svg version="1.0" xmlns="http://www.w3.org/2000/svg"
 width="1054.000000pt" height="490.000000pt" viewBox="0 0 1054.000000 490.000000"
 preserveAspectRatio="xMidYMid meet">

<g transform="translate(0.000000,490.000000) scale(0.100000,-0.100000)"
fill="#000000" stroke="none">
<path d="M8300 3605 c-79 -18 -118 -34 -175 -70 -62 -39 -100 -83 -134 -155
-23 -49 -26 -67 -26 -165 0 -99 3 -115 28 -166 35 -72 111 -148 182 -182 30
-15 55 -31 55 -36 0 -5 -20 -14 -45 -21 -25 -7 -76 -34 -113 -60 -106 -75
-149 -151 -159 -285 -15 -196 76 -356 248 -438 100 -47 171 -61 314 -61 184 0
306 41 409 135 104 95 141 193 134 353 -6 126 -34 192 -111 262 -48 43 -155
104 -184 104 -33 0 -17 21 32 44 67 31 153 114 183 178 45 98 47 244 4 342
-47 106 -166 190 -311 221 -86 18 -254 18 -331 0z m262 -166 c107 -23 174 -79
198 -165 18 -63 8 -179 -19 -231 -39 -78 -138 -123 -267 -123 -151 0 -237 41
-283 135 -20 40 -25 64 -25 130 0 101 28 165 89 207 75 51 198 70 307 47z m73
-715 c32 -11 68 -36 100 -68 65 -65 79 -111 73 -239 -3 -79 -8 -100 -31 -140
-33 -57 -94 -100 -172 -122 -83 -25 -250 -17 -320 14 -108 48 -165 141 -165
270 0 162 73 259 224 298 68 17 226 10 291 -13z"/>
<path d="M1630 2790 l0 -800 440 0 441 0 -3 88 -3 87 -337 3 -338 2 0 710 0
710 -100 0 -100 0 0 -800z"/>
<path d="M2770 2790 l0 -800 490 0 490 0 0 90 0 90 -390 0 -390 0 0 270 0 270
368 2 367 3 3 88 3 87 -371 0 -370 0 0 265 0 265 390 0 390 0 0 85 0 85 -490
0 -490 0 0 -800z"/>
<path d="M4208 2790 l267 -800 120 0 120 0 264 788 c145 433 266 793 269 800
3 9 -21 12 -100 12 l-104 0 -157 -482 c-86 -266 -184 -577 -218 -693 -35 -115
-65 -213 -69 -218 -3 -4 -41 113 -84 260 -43 148 -141 463 -219 701 l-141 432
-107 0 -107 0 266 -800z"/>
<path d="M5510 2790 l0 -800 490 0 490 0 0 90 0 90 -390 0 -390 0 0 270 0 270
368 2 367 3 3 88 3 87 -371 0 -370 0 0 265 0 265 390 0 390 0 0 85 0 85 -490
0 -490 0 0 -800z"/>
<path d="M6840 2790 l0 -800 440 0 441 0 -3 88 -3 87 -337 3 -338 2 0 710 0
710 -100 0 -100 0 0 -800z"/>
</g>
</svg>
